<?xml version="1.0" encoding="UTF-8" standalone="no"?>
<!-- Created with Inkscape (http://www.inkscape.org/) -->

<svg
   xmlns:dc="http://purl.org/dc/elements/1.1/"
   xmlns:cc="http://creativecommons.org/ns#"
   xmlns:rdf="http://www.w3.org/1999/02/22-rdf-syntax-ns#"
   xmlns:svg="http://www.w3.org/2000/svg"
   xmlns="http://www.w3.org/2000/svg"
   xmlns:sodipodi="http://sodipodi.sourceforge.net/DTD/sodipodi-0.dtd"
   xmlns:inkscape="http://www.inkscape.org/namespaces/inkscape"
   width="210mm"
   height="297mm"
   viewBox="0 0 744.09448819 1052.3622047"
   id="svg2"
   version="1.1"
   inkscape:version="0.92.0 r15299"
   sodipodi:docname="Propagandate.svg">
  <defs
     id="defs4" />
  <sodipodi:namedview
     id="base"
     pagecolor="#ffffff"
     bordercolor="#666666"
     borderopacity="1.0"
     inkscape:pageopacity="0.0"
     inkscape:pageshadow="2"
     inkscape:zoom="2.8"
     inkscape:cx="355.22548"
     inkscape:cy="995.35221"
     inkscape:document-units="px"
     inkscape:current-layer="layer1"
     showgrid="false"
     inkscape:window-width="1920"
     inkscape:window-height="1137"
     inkscape:window-x="-8"
     inkscape:window-y="-8"
     inkscape:window-maximized="1" />
  <metadata
     id="metadata7">
    <rdf:RDF>
      <cc:Work
         rdf:about="">
        <dc:format>image/svg+xml</dc:format>
        <dc:type
           rdf:resource="http://purl.org/dc/dcmitype/StillImage" />
        <dc:title />
      </cc:Work>
    </rdf:RDF>
  </metadata>
  <g
     inkscape:label="Calque 1"
     inkscape:groupmode="layer"
     id="layer1">
    <g
       id="g4178"
       style="font-style:normal;font-weight:normal;font-size:54.04391479px;line-height:125%;font-family:sans-serif;letter-spacing:0px;word-spacing:0px;fill:none;fill-opacity:1;stroke:#c50000;stroke-width:1px;stroke-linecap:butt;stroke-linejoin:miter;stroke-opacity:1">
      <path
         id="path4180"
         style="fill:none;stroke:#c50000;stroke-opacity:1"
         d="m 231.7672,121.32404 0,14.43458 8.54992,0 q 4.30134,0 6.35966,-1.76804 2.0847,-1.79443 2.0847,-5.46245 0,-3.69441 -2.0847,-5.43606 -2.05832,-1.76803 -6.35966,-1.76803 l -8.54992,0 z m 0,-16.20262 0,11.87488 7.8902,0 q 3.90552,0 5.8055,-1.45137 1.92637,-1.47777 1.92637,-4.48607 0,-2.98192 -1.92637,-4.45968 -1.89998,-1.47776 -5.8055,-1.47776 l -7.8902,0 z m -5.3305,-4.38052 13.61653,0 q 6.09578,0 9.39435,2.53331 3.29858,2.53331 3.29858,7.2041 0,3.61524 -1.68887,5.75272 -1.68887,2.13748 -4.96106,2.66525 3.9319,0.84444 6.09577,3.53608 2.19026,2.66525 2.19026,6.67632 0,5.27773 -3.58886,8.15409 -3.58885,2.87636 -10.2124,2.87636 l -14.1443,0 0,-39.39823 z" />
      <path
         id="path4182"
         style="fill:none;stroke:#c50000;stroke-opacity:1"
         d="m 280.40145,115.12271 q -0.81805,-0.475 -1.79443,-0.68611 -0.94999,-0.23749 -2.11109,-0.23749 -4.11663,0 -6.33327,2.69164 -2.19026,2.66525 -2.19026,7.67909 l 0,15.56929 -4.88189,0 0,-29.55527 4.88189,0 0,4.59163 q 1.53054,-2.69164 3.98469,-3.98469 2.45414,-1.31943 5.96383,-1.31943 0.50138,0 1.10832,0.0792 0.60694,0.0528 1.34582,0.18472 l 0.0264,4.98745 z" />
      <path
         id="path4184"
         style="fill:none;stroke:#c50000;stroke-opacity:1"
         d="m 295.8388,113.988 q -3.90552,0 -6.17494,3.06108 -2.26943,3.03469 -2.26943,8.33881 0,5.30411 2.24304,8.36519 2.26942,3.03469 6.20133,3.03469 3.87912,0 6.14855,-3.06108 2.26942,-3.06108 2.26942,-8.3388 0,-5.25134 -2.26942,-8.31242 -2.26943,-3.08747 -6.14855,-3.08747 z m 0,-4.11663 q 6.33327,0 9.94851,4.11663 3.61524,4.11662 3.61524,11.39989 0,7.25687 -3.61524,11.39988 -3.61524,4.11663 -9.94851,4.11663 -6.35966,0 -9.97491,-4.11663 -3.58885,-4.14301 -3.58885,-11.39988 0,-7.28327 3.58885,-11.39989 3.61525,-4.11663 9.97491,-4.11663 z" />
      <path
         id="path4186"
         style="fill:none;stroke:#c50000;stroke-opacity:1"
         d="m 330.85651,125.28233 q -5.88466,0 -8.15408,1.34582 -2.26942,1.34582 -2.26942,4.59162 0,2.58609 1.68887,4.11663 1.71526,1.50415 4.6444,1.50415 4.03746,0 6.46521,-2.84997 2.45414,-2.87636 2.45414,-7.62632 l 0,-1.08193 -4.82912,0 z m 9.68463,-2.00554 0,16.86234 -4.85551,0 0,-4.48607 q -1.66248,2.69164 -4.14301,3.98469 -2.48053,1.26665 -6.06939,1.26665 -4.53884,0 -7.23048,-2.53331 -2.66525,-2.5597 -2.66525,-6.83465 0,-4.98745 3.32496,-7.52076 3.35136,-2.53331 9.97491,-2.53331 l 6.80826,0 0,-0.475 q 0,-3.35135 -2.21664,-5.17217 -2.19026,-1.8472 -6.17494,-1.8472 -2.53331,0 -4.93467,0.60694 -2.40137,0.60693 -4.61802,1.82081 l 0,-4.48607 q 2.66526,-1.02915 5.17218,-1.53054 2.50692,-0.52777 4.88189,-0.52777 6.41244,0 9.57908,3.32497 3.16663,3.32497 3.16663,10.08045 z" />
      <path
         id="path4188"
         style="fill:none;stroke:#c50000;stroke-opacity:1"
         d="m 370.01724,115.06993 0,-15.991509 4.85551,0 0,41.060709 -4.85551,0 0,-4.43329 q -1.53054,2.63886 -3.87913,3.93191 -2.3222,1.26665 -5.59439,1.26665 -5.35689,0 -8.73463,-4.27496 -3.35136,-4.27496 -3.35136,-11.24155 0,-6.9666 3.35136,-11.24156 3.37774,-4.27496 8.73463,-4.27496 3.27219,0 5.59439,1.29304 2.34859,1.26666 3.87913,3.90552 z m -16.54567,10.31796 q 0,5.35689 2.19026,8.41797 2.21664,3.03469 6.06938,3.03469 3.85274,0 6.06939,-3.03469 2.21664,-3.06108 2.21664,-8.41797 0,-5.3569 -2.21664,-8.39159 -2.21665,-3.06108 -6.06939,-3.06108 -3.85274,0 -6.06938,3.06108 -2.19026,3.03469 -2.19026,8.39159 z" />
      <path
         id="path4190"
         style="fill:none;stroke:#c50000;stroke-opacity:1"
         d="m 406.14326,111.71857 0,4.53885 q -2.05831,-1.13471 -4.14301,-1.68887 -2.05832,-0.58055 -4.16941,-0.58055 -4.72356,0 -7.33603,3.0083 -2.61248,2.98192 -2.61248,8.39159 0,5.40966 2.61248,8.41797 2.61247,2.98191 7.33603,2.98191 2.11109,0 4.16941,-0.55416 2.0847,-0.58055 4.14301,-1.71526 l 0,4.48607 q -2.03192,0.94999 -4.22218,1.42498 -2.16387,0.475 -4.61801,0.475 -6.67632,0 -10.60823,-4.19579 -3.9319,-4.19579 -3.9319,-11.32072 0,-7.23049 3.95829,-11.3735 3.98468,-4.14302 10.89851,-4.14302 2.24303,0 4.38051,0.475 2.13748,0.4486 4.14301,1.3722 z" />
      <path
         id="path4192"
         style="fill:none;stroke:#c50000;stroke-opacity:1"
         d="m 428.07223,125.28233 q -5.88467,0 -8.15409,1.34582 -2.26942,1.34582 -2.26942,4.59162 0,2.58609 1.68887,4.11663 1.71526,1.50415 4.6444,1.50415 4.03746,0 6.46521,-2.84997 2.45415,-2.87636 2.45415,-7.62632 l 0,-1.08193 -4.82912,0 z m 9.68462,-2.00554 0,16.86234 -4.8555,0 0,-4.48607 q -1.66249,2.69164 -4.14302,3.98469 -2.48053,1.26665 -6.06938,1.26665 -4.53885,0 -7.23049,-2.53331 -2.66525,-2.5597 -2.66525,-6.83465 0,-4.98745 3.32497,-7.52076 3.35135,-2.53331 9.9749,-2.53331 l 6.80827,0 0,-0.475 q 0,-3.35135 -2.21665,-5.17217 -2.19025,-1.8472 -6.17494,-1.8472 -2.53331,0 -4.93467,0.60694 -2.40137,0.60693 -4.61801,1.82081 l 0,-4.48607 q 2.66525,-1.02915 5.17217,-1.53054 2.50692,-0.52777 4.8819,-0.52777 6.41243,0 9.57907,3.32497 3.16663,3.32497 3.16663,10.08045 z" />
      <path
         id="path4194"
         style="fill:none;stroke:#c50000;stroke-opacity:1"
         d="m 466.62602,111.45469 0,4.59162 q -2.05832,-1.05555 -4.27496,-1.58332 -2.21665,-0.52777 -4.59162,-0.52777 -3.61525,0 -5.43606,1.10832 -1.79443,1.10832 -1.79443,3.32497 0,1.68887 1.29304,2.66525 1.29305,0.94999 5.19856,1.82082 l 1.66249,0.36944 q 5.17217,1.10832 7.33604,3.14024 2.19025,2.00554 2.19025,5.62078 0,4.11663 -3.27219,6.51799 -3.2458,2.40137 -8.94574,2.40137 -2.37498,0 -4.96106,-0.475 -2.5597,-0.4486 -5.40967,-1.3722 l 0,-5.01384 q 2.69164,1.39859 5.30411,2.11109 2.61248,0.6861 5.17217,0.6861 3.43052,0 5.27773,-1.1611 1.8472,-1.18749 1.8472,-3.32497 0,-1.97914 -1.34582,-3.03469 -1.31943,-1.05554 -5.83188,-2.03192 l -1.68888,-0.39583 q -4.51245,-0.94999 -6.51799,-2.90275 -2.00553,-1.97915 -2.00553,-5.40967 0,-4.1694 2.95552,-6.43883 2.95553,-2.26942 8.39159,-2.26942 2.69164,0 5.06661,0.39583 2.37498,0.39583 4.38052,1.18749 z" />
      <path
         id="path4196"
         style="fill:none;stroke:#c50000;stroke-opacity:1"
         d="m 480.77032,102.19228 0,8.39158 10.0013,0 0,3.77358 -10.0013,0 0,16.04429 q 0,3.61524 0.97638,4.64439 1.00277,1.02916 4.03746,1.02916 l 4.98746,0 0,4.06385 -4.98746,0 q -5.62077,0 -7.75825,-2.0847 -2.13748,-2.11109 -2.13748,-7.6527 l 0,-16.04429 -3.56247,0 0,-3.77358 3.56247,0 0,-8.39158 4.88189,0 z" />
    </g>
    <rect
       style="fill:#c50000;fill-opacity:1;stroke:none"
       id="rect4139"
       width="484.87323"
       height="129.29953"
       x="116.16754"
       y="55.34164"
       inkscape:export-xdpi="95.359955"
       inkscape:export-ydpi="95.359955" />
    <circle
       style="fill:#fffa83;fill-opacity:0.23394494;stroke:none"
       id="path4149"
       cx="358.60416"
       cy="119.99141"
       r="190.91882" />
    <circle
       r="117.17769"
       cy="119.99141"
       cx="358.60416"
       id="circle4151"
       style="fill:#fffa83;fill-opacity:0.23394494;stroke:none" />
    <circle
       style="fill:#fffa83;fill-opacity:0.23394494;stroke:none"
       id="circle4153"
       cx="358.60416"
       cy="119.99141"
       r="44.446705" />
    <rect
       style="fill:#800000;fill-opacity:0;stroke:none"
       id="rect4136"
       width="537.14288"
       height="134.28572"
       x="100"
       y="72.362206" />
    <text
       xml:space="preserve"
       style="font-style:normal;font-weight:normal;font-size:40px;line-height:125%;font-family:sans-serif;letter-spacing:0px;word-spacing:0px;fill:#000000;fill-opacity:1;stroke:none;stroke-width:1px;stroke-linecap:butt;stroke-linejoin:miter;stroke-opacity:1"
       x="142.4315"
       y="98.778198"
       id="text4141"><tspan
         sodipodi:role="line"
         id="tspan4143"
         x="142.4315"
         y="98.778198" /></text>
  </g>
</svg>
